<svg width="63px" height="63px" viewBox="0 0 63 63" version="1.1" xmlns="http://www.w3.org/2000/svg" xmlns:xlink="http://www.w3.org/1999/xlink">
        <path d="M63,31.5 C63,48.897 48.897,63 31.5,63 C14.103,63 0,48.897 0,31.5 C0,14.103 14.103,0 31.5,0 C48.897,0 63,14.103 63,31.5 Z" id="Path" fill="var(--color1)"></path>
        <g id="Group" transform="translate(10.000000, 10.000000)" fill="var(--color2)" fill-rule="nonzero">
            <path d="M0,21.003 C0,25.753 3.946,29.617 8.695,29.617 C13.445,29.617 17.309,25.752 17.309,21.003 C17.309,16.254 13.444,12.39 8.695,12.39 C3.946,12.39 0,16.254 0,21.003 L0,21.003 Z" id="Path"></path>
            <path d="M36.995,22.227 C34.2777969,22.2242439 32.0757561,20.0222031 32.073,17.305 C32.073,16.288 32.391,15.305 32.993,14.46 L34.747,12 L31.773,12.535 C27.6741354,13.2678917 24.69,16.8331291 24.69,20.997 C24.69,25.745 28.554,29.61 33.303,29.61 C37.467,29.61 40.725,26.631 41.463,22.527 L42,19.553 L39.54,21.306 C38.694,21.908 38.012,22.227 36.996,22.227 L36.995,22.227 Z" id="Path"></path>
            <path d="M33.928,34.183 L32.205,32.426 C27.235,37.303 19.633,38.346 13.508,35.093 L17.3,34.077 L16.663,31.7 L8.75,33.82 L10.871,42.002 L13.248,41.365 L12.203,37.197 C14.8974026,38.6683961 17.9170211,39.4425515 20.987,39.449 C25.714,39.449 30.401,37.646 33.927,34.183 L33.928,34.183 Z" id="Path"></path>
            <path d="M25.335,10.302 L33.248,8.182 L31.127,0 L28.75,0.637 L29.798,4.815 C22.708,0.965 13.846,2.152 8.07,7.819 L9.793,9.576 C14.765,4.7 22.367,3.66 28.49,6.91 L24.698,7.925 L25.335,10.302 Z" id="Path"></path>
        </g>
</svg>