<svg xmlns="http://www.w3.org/2000/svg" width="57" height="53" viewBox="0 0 57 53">
    <g>
        <g>
            <g>
                <g>
                    <g/>
                    <g>
                        <path fill="var(--color1)" d="M20.61 17.764c0-1.41 1.035-2.445 2.338-2.534.464 0 .839.107 1.213.303l17.525 8.71c1.785.927 1.785 3.55 0 4.497l-17.525 8.708c-1.677.84-3.551-.374-3.551-2.248zm4.961 13.42l9.37-4.693-9.37-4.694z"/>
                    </g>
                    <g>
                        <path fill="var(--color1)" d="M56.019 29.674c-1.303 10.779-9.173 19.577-19.577 22.2-10.494 2.713-21.54-1.41-27.822-10.208-1.963-2.623 2.052-5.532 4.033-2.82 5.05 7.12 14.045 10.405 22.575 8.245 8.423-2.16 14.705-9.28 15.83-17.989 1.124-8.708-3.284-17.15-10.958-21.272-7.78-4.212-17.24-3.195-23.896 2.445-.089.089-.178.196-.285.196.178.75.285 1.5.285 2.249 0 4.408-3.658 8.066-8.048 8.066C3.658 20.786 0 17.128 0 12.72c0-4.497 3.658-8.156 8.156-8.156 1.873 0 3.658.66 4.96 1.785C17.24 2.976 22.112.906 27.163.442c.66-.09 1.32-.197 1.98-.197 4.498-.089 9.084.946 13.296 3.195 9.458 5.068 14.901 15.562 13.58 26.234zM11.243 12.72c0-1.785-1.41-3.195-3.087-3.195-1.785 0-3.177 1.41-3.177 3.195 0 1.695 1.41 3.087 3.177 3.087 1.677 0 3.087-1.41 3.087-3.087z"/>
                    </g>
                </g>
            </g>
        </g>
    </g>
</svg>