<svg version="1.1" id="el_7gqoTgjYw" xmlns="http://www.w3.org/2000/svg" xmlns:xlink="http://www.w3.org/1999/xlink" x="0px" y="0px" viewBox="0 0 294 294" style="enable-background:new 0 0 294.843 294.843;" xml:space="preserve"><style type="text/css">@-webkit-keyframes kf_el_OQox2UjigQ_an_GU2BatcMP {
    0% {
        -webkit-transform: translate(147.42100524902344px, 147.42100524902344px) rotate(0deg) translate(-147.42100524902344px, -147.42100524902344px);
                transform: translate(147.42100524902344px, 147.42100524902344px) rotate(0deg) translate(-147.42100524902344px, -147.42100524902344px)
    }
    100% {
        -webkit-transform: translate(147.42100524902344px, 147.42100524902344px) rotate(360deg) translate(-147.42100524902344px, -147.42100524902344px);
                transform: translate(147.42100524902344px, 147.42100524902344px) rotate(360deg) translate(-147.42100524902344px, -147.42100524902344px)
    }
}
@keyframes kf_el_OQox2UjigQ_an_GU2BatcMP {
    0% {
        -webkit-transform: translate(147.42100524902344px, 147.42100524902344px) rotate(0deg) translate(-147.42100524902344px, -147.42100524902344px);
                transform: translate(147.42100524902344px, 147.42100524902344px) rotate(0deg) translate(-147.42100524902344px, -147.42100524902344px)
    }
    100% {
        -webkit-transform: translate(147.42100524902344px, 147.42100524902344px) rotate(360deg) translate(-147.42100524902344px, -147.42100524902344px);
                transform: translate(147.42100524902344px, 147.42100524902344px) rotate(360deg) translate(-147.42100524902344px, -147.42100524902344px)
    }
}
#el_7gqoTgjYw * {
    -webkit-animation-duration: 3s;
            animation-duration: 3s;
    -webkit-animation-iteration-count: infinite;
            animation-iteration-count: infinite;
    -webkit-animation-timing-function: cubic-bezier(0, 0, 1, 1);
            animation-timing-function: cubic-bezier(0, 0, 1, 1)
}
#el_tmdKFLmmhC_an_3bzszlviL {
    -webkit-transform: translate(106.66399383544922px, 78.18494415283203px) translate(-106.66399383544922px, -78.18494415283203px) translate(0px, 0px);
            transform: translate(106.66399383544922px, 78.18494415283203px) translate(-106.66399383544922px, -78.18494415283203px) translate(0px, 0px)
}
#el_OQox2UjigQ_an_GU2BatcMP {
    -webkit-transform: translate(147.42100524902344px, 147.42100524902344px) rotate(0deg) translate(-147.42100524902344px, -147.42100524902344px);
            transform: translate(147.42100524902344px, 147.42100524902344px) rotate(0deg) translate(-147.42100524902344px, -147.42100524902344px);
    -webkit-animation-fill-mode: backwards;
            animation-fill-mode: backwards;
    -webkit-animation-name: kf_el_OQox2UjigQ_an_GU2BatcMP;
            animation-name: kf_el_OQox2UjigQ_an_GU2BatcMP;
    -webkit-animation-timing-function: cubic-bezier(0, 0, 1, 1);
            animation-timing-function: cubic-bezier(0, 0, 1, 1)
}</style><style/>
<g id="el_BkonaSt6gh">
	<g id="el_OQox2UjigQ_an_GU2BatcMP" data-animator-group="true" data-animator-type="1"><path d="M278.527,79.946c-10.324-20.023-25.38-37.704-43.538-51.132c-2.665-1.97-6.421-1.407-8.392,1.257s-1.407,6.421,1.257,8.392&#10;&#9;&#9;c16.687,12.34,30.521,28.586,40.008,46.983c9.94,19.277,14.98,40.128,14.98,61.976c0,74.671-60.75,135.421-135.421,135.421&#10;&#9;&#9;S12,222.093,12,147.421S72.75,12,147.421,12c3.313,0,6-2.687,6-6s-2.687-6-6-6C66.133,0,0,66.133,0,147.421&#10;&#9;&#9;s66.133,147.421,147.421,147.421s147.421-66.133,147.421-147.421C294.842,123.977,289.201,100.645,278.527,79.946z" id="el_OQox2UjigQ"/></g>
	<path d="M109.699,78.969c-1.876,1.067-3.035,3.059-3.035,5.216v131.674c0,3.314,2.687,6,6,6s6-2.686,6-6V94.74l88.833,52.883&#10;&#9;&#9;l-65.324,42.087c-2.785,1.795-3.589,5.508-1.794,8.293c1.796,2.786,5.508,3.59,8.294,1.794l73.465-47.333&#10;&#9;&#9;c1.746-1.125,2.786-3.073,2.749-5.15c-0.037-2.077-1.145-3.987-2.93-5.05L115.733,79.029&#10;&#9;&#9;C113.877,77.926,111.575,77.902,109.699,78.969z" id="el_tmdKFLmmhC"/>
</g>
<g id="el_-4u4Jx4lLr">
</g>
<g id="el_cWmOnRo1NG">
</g>
<g id="el_KnWMXMJlIZ">
</g>
<g id="el_pvhAHWz_VB">
</g>
<g id="el_UilVqNZnOc">
</g>
<g id="el_JGwgEdhtWb">
</g>
<g id="el_pnJijeUQBf">
</g>
<g id="el_J56zp2R19c">
</g>
<g id="el_dcb-LqDCI_">
</g>
<g id="el_Tc3Lrgopch">
</g>
<g id="el_gDOh5Re4sc">
</g>
<g id="el_ZfW7OS9vMu">
</g>
<g id="el_XkUwunG7LbO">
</g>
<g id="el_D5lhCtaX-0r">
</g>
<g id="el_8O3BnWx--Yw">
</g>
</svg>