<svg xmlns="http://www.w3.org/2000/svg" width="31" height="31" viewBox="0 0 31 31"><g><g><path fill="#c6cfff" d="M21.533 18.578a2.5 2.5 0 0 1 1.253.674l6.718 6.72a2.496 2.496 0 0 1 0 3.535 2.498 2.498 0 0 1-3.535 0l-6.718-6.718a2.491 2.491 0 0 1-.676-1.254c-4.61 3.207-11.008 2.767-15.116-1.34-4.612-4.614-4.612-12.121 0-16.735 4.613-4.613 12.121-4.613 16.734 0 4.109 4.11 4.549 10.507 1.34 15.118zM18.072 5.582c-3.444-3.443-9.049-3.443-12.492 0-3.442 3.444-3.442 9.048 0 12.492 3.443 3.444 9.048 3.444 12.492 0 3.444-3.444 3.444-9.048 0-12.492z"/></g></g></svg>