<svg xmlns="http://www.w3.org/2000/svg" width="63" height="53" viewBox="0 0 63 53">
    <g>
        <g>
            <g>
                <g>
                    <path fill="var(--color1)" d="M43.982 20.72a2.864 2.864 0 0 0-4.051 0l-8.17 8.168a5.449 5.449 0 0 0-1.258-.148 5.462 5.462 0 0 0-5.453 5.458 5.462 5.462 0 0 0 5.453 5.458 5.464 5.464 0 0 0 5.31-6.717l8.169-8.169a2.865 2.865 0 0 0 0-4.05z"/>
                </g>
            </g>
        </g>
        <g>
            <g>
                <g>
                    <path fill="var(--color1)" d="M53.782 9.773C41.497-2.51 21.504-2.51 9.213 9.773-1.395 20.388-3.039 37.13 5.304 49.582a2.865 2.865 0 0 0 4.76-3.19 25.6 25.6 0 0 1-4.175-11.393h2.694a2.865 2.865 0 1 0 0-5.73H5.88a25.8 25.8 0 0 1 5.44-13.263l1.95 1.95c.559.559 1.292.838 2.025.838a2.864 2.864 0 0 0 2.025-4.89l-1.957-1.958a25.677 25.677 0 0 1 13.393-5.512v2.705a2.865 2.865 0 0 0 5.729 0V6.46a25.66 25.66 0 0 1 13.15 5.487l-1.956 1.957a2.865 2.865 0 0 0 4.051 4.051l1.948-1.947a25.787 25.787 0 0 1 5.441 13.262h-2.702a2.865 2.865 0 0 0 0 5.73h2.693a25.593 25.593 0 0 1-4.175 11.393 2.865 2.865 0 1 0 4.759 3.19c8.346-12.454 6.701-29.195-3.912-39.809z"/>
                </g>
            </g>
        </g>
        <g>
            <g>
                <g>
                    <path fill="var(--color1)" d="M44.406 46.71H18.585a2.865 2.865 0 0 0 0 5.73h25.821a2.864 2.864 0 1 0 0-5.73z"/>
                </g>
            </g>
        </g>
    </g>
</svg>