<svg id="Layer_1" enable-background="new 0 0 511.374 511.374" height="512" viewBox="0 0 511.374 511.374" width="512" xmlns="http://www.w3.org/2000/svg"><path d="m127.707 320.025c5.569 0 10.911 2.212 14.849 6.15l36.513 36.51h153.27l36.514-36.51c3.938-3.938 9.279-6.15 14.849-6.15h88.568c16.38 0 27.95-16.038 22.772-31.578-13.2-39.617-37.122-111.188-80.472-241.242-9.392-28.176-35.761-47.187-65.461-47.187h-186.808c-29.747 0-56.052 18.96-65.459 47.181-.954 2.857-53.596 160.781-80.412 241.243-5.179 15.541 6.389 31.584 22.77 31.584h88.507zm54.363-151.355c65.628-62.345 58.561-55.661 59.769-56.726 6.491-5.721 15.885-6.92 23.647-2.83 3.705 1.958-.125-1.22 63.851 59.556 8.408 7.988 8.749 21.28.762 29.689-8.011 8.43-21.301 8.729-29.689.762l-23.706-22.521v79.085c0 11.598-9.402 21-21 21s-21-9.402-21-21v-79.085l-23.707 22.521c-8.409 7.988-21.7 7.646-29.688-.762-7.989-8.409-7.647-21.701.761-29.689z"/><path d="m392.399 362.025-36.514 36.51c-3.938 3.938-9.279 6.15-14.849 6.15h-170.666c-5.569 0-10.911-2.212-14.849-6.15l-36.513-36.51h-95.008c-13.266 0-24.016 10.754-24 24.02.017 14.168.037 32.504.037 56.308 0 38.108 30.894 69.001 69.002 69.001h373.331c38.108 0 69-30.898 69-69.006 0-23.983.002-42.31.004-56.329.002-13.256-10.744-23.995-24-23.995h-94.975z"/></svg>