<svg xmlns="http://www.w3.org/2000/svg" width="60" height="77" viewBox="0 0 60 77"><g><g><path fill="#6078f4" d="M5.717 5.923C5.717 2.652 8.4 0 11.717 0H54C57.312 0 60 2.652 60 5.923v65.154C60 74.348 57.312 77 54 77H11.718c-3.318 0-6-2.652-6-5.923v-8.615H3c-1.656 0-3-1.326-3-2.962 0-1.636 1.344-2.961 3-2.961h2.717v-8.076H3c-1.656-.001-3-1.327-3-2.963 0-1.635 1.344-2.961 3-2.96h2.717v-8.078H3c-1.656 0-3-1.327-3-2.962 0-1.636 1.344-2.961 3-2.961h2.717v-8.077H3c-1.656 0-3-1.326-3-2.962 0-1.635 1.344-2.96 3-2.96h2.717zm16.277 25.039h21.718c1.656 0 3-1.326 3-2.961 0-1.636-1.345-2.962-3-2.962H21.994c-1.656 0-3 1.325-3 2.961s1.344 2.962 3 2.962z"/></g></g></svg>